<svg xmlns="http://www.w3.org/2000/svg" width="224" height="39" fill="none"><g clip-path="url(#a)"><path fill="#263573" d="M0 0h8.209v15.286h15.176V0h8.154v38.088h-8.154v-15.98H8.21v15.98H0V0ZM42.083 37.176c-2.135-1.204-3.758-2.9-4.907-5.09-1.131-2.188-1.697-4.688-1.697-7.533 0-2.882.566-5.418 1.697-7.625 1.13-2.207 2.79-3.922 4.961-5.144 2.171-1.222 4.707-1.842 7.625-1.842 2.919 0 5.436.601 7.57 1.805 2.135 1.204 3.758 2.9 4.907 5.09 1.131 2.189 1.697 4.688 1.697 7.479 0 2.882-.566 5.417-1.697 7.625-1.13 2.207-2.79 3.921-4.961 5.162-2.171 1.24-4.707 1.86-7.625 1.86-2.919.037-5.436-.565-7.57-1.787ZM53.41 32.25c1.003-.693 1.769-1.697 2.298-3.028.51-1.332.766-2.9.766-4.707 0-2.772-.584-4.943-1.751-6.53-1.168-1.587-2.827-2.371-4.962-2.371-1.496 0-2.736.346-3.758 1.058-1.003.711-1.769 1.733-2.298 3.064-.51 1.332-.766 2.9-.766 4.706 0 2.773.584 4.944 1.751 6.494 1.168 1.57 2.864 2.354 5.053 2.354 1.441 0 2.645-.347 3.666-1.04ZM67.766 10.872h7.297v27.216h-7.297V10.872Zm16.837 6.549c-.784-.93-1.988-1.387-3.63-1.387-1.204 0-2.262.219-3.174.657a4.36 4.36 0 0 0-2.043 2.006c-.456.894-.693 1.989-.693 3.302h-2.08v-7.406h2.19c.82-1.35 1.951-2.444 3.429-3.302 1.477-.857 3.32-1.277 5.509-1.277 2.7 0 4.87.821 6.493 2.481 1.642 1.66 2.445 3.995 2.445 7.005v18.588h-7.297V21.725c.019-1.951-.383-3.374-1.149-4.305ZM102.462 37.176c-1.788-1.168-3.193-2.846-4.178-5.035-1.003-2.189-1.495-4.742-1.495-7.698 0-2.955.492-5.509 1.495-7.68.985-2.17 2.39-3.83 4.178-4.997 1.787-1.168 3.885-1.752 6.256-1.752 1.843 0 3.485.365 4.907 1.113 1.423.748 2.481 1.642 3.193 2.663h1.605v21.416h-1.605c-.748.967-1.825 1.824-3.229 2.59-1.405.766-3.01 1.15-4.816 1.15-2.408 0-4.505-.584-6.311-1.77Zm11.455-4.925c.949-.657 1.66-1.66 2.153-2.992.492-1.332.748-2.937.748-4.816s-.256-3.484-.748-4.797c-.493-1.313-1.222-2.317-2.153-2.992-.948-.675-2.061-1.003-3.374-1.003-1.35 0-2.5.347-3.43 1.058-.948.712-1.66 1.733-2.134 3.065-.474 1.331-.711 2.882-.711 4.651 0 1.806.237 3.375.711 4.706.474 1.332 1.186 2.335 2.134 3.029.949.693 2.08 1.04 3.43 1.04 1.313.036 2.444-.293 3.374-.95ZM116.927 0h7.297v38.088h-7.297V0ZM129.349 10.872h7.297v27.216h-7.297V10.872Zm2.28 4.688h5.108c.711-1.605 1.66-2.846 2.827-3.721 1.168-.894 2.518-1.332 4.05-1.332.912 0 1.715.055 2.389.164v6.549a10.432 10.432 0 0 0-1.751-.164c-1.386 0-2.663.31-3.83.93-1.168.62-2.098 1.532-2.773 2.718-.675 1.186-1.003 2.59-1.003 4.177l-5.017-9.321ZM153.337 37.14c-2.08-1.241-3.667-2.956-4.761-5.145-1.095-2.189-1.642-4.688-1.642-7.533 0-2.737.547-5.2 1.624-7.406 1.076-2.208 2.681-3.94 4.797-5.2 2.116-1.258 4.615-1.896 7.479-1.896 2.919 0 5.381.583 7.406 1.75 2.025 1.168 3.557 2.883 4.579 5.108 1.021 2.244 1.55 4.926 1.55 8.045v1.55H151.02v-4.852h15.87c0-1.24-.237-2.316-.711-3.247-.475-.93-1.204-1.641-2.153-2.152-.967-.51-2.061-.766-3.301-.766-1.277 0-2.408.273-3.375.82-.985.548-1.733 1.35-2.299 2.408-.565 1.058-.82 2.28-.82 3.703v3.995c0 1.35.291 2.572.857 3.649.565 1.076 1.35 1.915 2.371 2.499 1.004.583 2.171.875 3.484.875 1.168 0 2.153-.182 2.937-.529.785-.365 1.387-.802 1.843-1.331a5.803 5.803 0 0 0 .985-1.66h7.46c-.784 2.809-2.298 5.034-4.56 6.676-2.262 1.66-5.199 2.48-8.81 2.48-2.901.019-5.382-.601-7.461-1.842Z"/><path fill="#263573" d="m183.471 24.188-8.682-13.316h7.935l5.107 8.519h.11l5.107-8.52h7.935L192.3 24.189l9.759 13.9h-8.372l-5.801-9.157h-.11l-5.746 9.157h-8.263l9.704-13.9ZM211.271 10.872h-7.296v27.216h7.296V10.872Z"/><path fill="#E7352C" d="M211.435.146h-7.551v6.877h7.551V.146Z"/><path fill="#263573" d="M223.676 0h-7.297v38.088h7.297V0Z"/></g><defs><clipPath id="a"><path fill="#fff" d="M0 0h223.694v39H0z"/></clipPath></defs></svg>
