<svg width="27" height="22" viewBox="0 0 27 22" fill="none" xmlns="http://www.w3.org/2000/svg">
<path d="M11.1852 0.059997L7.12521 15.6L6.00521 10.35C7.63854 10.35 8.99188 10.8633 10.0652 11.89C11.1385 12.9167 11.6752 14.2933 11.6752 16.02C11.6752 17.7467 11.1385 19.1467 10.0652 20.22C8.99188 21.2467 7.66188 21.76 6.07521 21.76C4.39521 21.76 3.01854 21.2233 1.94521 20.15C0.871876 19.0767 0.33521 17.7 0.33521 16.02C0.33521 15.46 0.358543 14.9467 0.40521 14.48C0.498543 13.9667 0.661876 13.36 0.89521 12.66C1.12854 11.96 1.45521 11.0733 1.87521 10L5.58521 0.059997H11.1852ZM26.0252 0.059997L21.9652 15.6L20.8452 10.35C22.4785 10.35 23.8319 10.8633 24.9052 11.89C25.9785 12.9167 26.5152 14.2933 26.5152 16.02C26.5152 17.7467 25.9785 19.1467 24.9052 20.22C23.8319 21.2467 22.5019 21.76 20.9152 21.76C19.2352 21.76 17.8585 21.2233 16.7852 20.15C15.7119 19.0767 15.1752 17.7 15.1752 16.02C15.1752 15.46 15.1985 14.9467 15.2452 14.48C15.3385 13.9667 15.5019 13.36 15.7352 12.66C15.9685 11.96 16.2952 11.0733 16.7152 10L20.4252 0.059997H26.0252Z" fill="#263573"/>
</svg>
